<?xml version="1.0" encoding="utf-8"?>
<!-- Generator: Adobe Illustrator 28.0.0, SVG Export Plug-In . SVG Version: 6.00 Build 0)  -->
<svg version="1.1" id="Layer_1" xmlns="http://www.w3.org/2000/svg" xmlns:xlink="http://www.w3.org/1999/xlink" x="0px" y="0px"
	 viewBox="0 0 100 100" style="enable-background:new 0 0 100 100;" xml:space="preserve">
<path d="M17.8,90L17.8,90c-2.74-1.77-3.53-5.42-1.77-8.16l45.26-70.28c1.77-2.74,5.42-3.53,8.16-1.77l0,0
	c2.74,1.77,3.53,5.42,1.77,8.16L25.95,88.23C24.19,90.97,20.54,91.77,17.8,90z"/>
<path d="M30.32,98.07L30.32,98.07c-2.74-1.77-3.53-5.42-1.77-8.16l19.44-30.18c1.77-2.74,5.42-3.53,8.16-1.77l0,0
	c2.74,1.77,3.53,5.42,1.77,8.16L38.48,96.3C36.71,99.04,33.06,99.83,30.32,98.07z"/>
<path d="M31.1,41.83L31.1,41.83c-2.74-1.77-3.53-5.42-1.77-8.16L48.77,3.49c1.77-2.74,5.42-3.53,8.16-1.77l0,0
	c2.74,1.77,3.53,5.42,1.77,8.16L39.26,40.06C37.49,42.8,33.84,43.59,31.1,41.83z"/>
<path d="M75.58,27.78L75.58,27.78c-2.74-1.77-3.53-5.42-1.77-8.16v0c1.77-2.74,5.42-3.53,8.16-1.77l0,0
	c2.74,1.77,3.53,5.42,1.77,8.16l0,0C81.98,28.76,78.32,29.55,75.58,27.78z"/>
</svg>
